<svg width="100" height="100" xmlns="http://www.w3.org/2000/svg">
 <g>
  <title>Layer 1</title>
  <path d="m48.4536,50.97937c0.25773,0 0.39494,-0.05127 0.7732,-0.7732c0.59807,-1.14146 1.40423,-2.2695 1.80412,-3.35051c0.36869,-0.99665 0.51546,-2.57732 0.51546,-4.12371c0,-1.54639 -0.51546,-3.86598 -1.03093,-5.6701c-0.51546,-1.80412 -1.03093,-3.60825 -1.28866,-5.15464c-0.25773,-1.54639 -0.96124,-2.6363 -2.06186,-3.86598c-0.48617,-0.54318 -1.54639,-0.7732 -3.35052,-0.7732c-2.83505,0 -6.48824,-0.38406 -10.30928,0.25773c-2.898,0.48676 -6.61185,2.21031 -9.53608,3.86598c-2.50751,1.41973 -4.44301,3.02554 -6.70103,5.15464c-1.85634,1.75035 -3.85181,3.94201 -4.38144,6.18557c-0.29607,1.25418 -0.00353,3.20627 3.09278,4.12371c6.44391,1.90934 18.34333,1.6526 26.28866,0.77319c5.47623,-0.60612 10.53128,-2.94028 14.94845,-4.38144c5.11618,-1.66923 8.72805,-2.31854 11.59793,-2.57732c1.79684,-0.16202 3.59213,0.57831 4.38145,1.80412c1.19216,1.85144 1.77191,5.0934 2.57732,8.50515c0.72038,3.05157 0.81307,5.42466 0.51546,9.02062c-0.25861,3.12476 -1.39735,6.44858 -4.8969,8.76288c-5.19512,3.43561 -11.84023,4.63898 -18.29897,4.89691c-4.12043,0.16455 -6.88461,0.41668 -9.02062,-0.7732c-1.75851,-0.97959 -4.39138,-3.63318 -5.92783,-5.6701c-1.59793,-2.11843 -2.22693,-4.64222 -0.25773,-8.76289c1.7571,-3.67683 6.57181,-7.03599 11.34021,-10.56701c2.6525,-1.96419 6.73162,-5.71312 11.08247,-8.76289c3.69182,-2.58781 7.28732,-4.52683 9.79381,-6.18557c2.92336,-1.93461 4.869,-2.62777 6.70103,-3.60825c1.52435,-0.8158 2.18718,-1.07635 2.31959,-0.51546c0.05922,0.25084 0.6442,1.53763 0.77319,4.38144c0.16351,3.60454 -0.60973,8.74897 -4.38144,13.14433c-5.11565,5.96152 -11.05085,7.8886 -15.72165,11.08247c-1.36226,0.93151 -5.53232,5.54457 -8.50515,8.50515c-2.71484,2.70365 -7.02135,6.79803 -12.62887,8.24743c-3.5289,0.91212 -6.96646,0.63258 -8.24742,0.77319c-2.36198,0.25928 -3.97219,0.7813 -4.89691,0.25773c-0.95153,-0.53875 -2.15296,-2.70717 -3.60825,-7.21649c-1.70877,-5.29476 -2.79847,-11.05264 -3.35052,-15.97938c-0.43145,-3.85046 -0.71079,-7.36678 0.7732,-11.08247c1.19777,-2.99903 3.55754,-5.33051 4.89691,-9.02062c0.91805,-2.52935 1.06678,-3.85933 1.28866,-5.15464c0.30769,-1.79628 0.41993,-3.06886 1.03093,-3.60825c0.98521,-0.86973 2.93458,-1.70311 5.15464,-1.03093c1.77879,0.53857 2.61611,3.46746 4.89691,7.47423c2.12203,3.72786 4.44143,5.60135 5.92784,6.95876c1.88402,1.72052 4.8238,3.56253 9.53608,7.73196c2.59686,2.2977 4.60756,4.93762 8.24742,7.73196c5.11089,3.92365 7.69688,5.72637 12.62886,8.76289c3.83917,2.3637 7.47423,4.63918 7.73196,4.63918c0.25774,0 0.26401,0.12698 1.54639,0c1.30779,-0.1295 2.6292,-1.11558 3.09278,-0.7732c1.26107,0.93138 -2.1279,3.5239 -4.12371,5.15464c-2.40327,1.96368 -5.02941,4.41263 -7.73196,5.41237c-2.98994,1.10606 -6.47924,1.60062 -10.05154,1.03093c-4.19758,-0.66941 -8.81091,-2.98796 -13.40206,-5.15464c-3.1271,-1.47575 -5.08816,-2.91397 -7.21649,-4.63918c-2.00216,-1.62293 -2.98891,-3.16147 -4.38144,-5.15464c-1.683,-2.40892 -3.91683,-6.15842 -5.41237,-9.02062c-1.60135,-3.06469 -2.00718,-5.62538 -0.51546,-8.24742c1.81135,-3.18387 6.63786,-7.04547 9.79381,-9.27835c1.51719,-1.07343 4.92682,-3.05079 7.47422,-4.89691c3.13038,-2.2686 6.22134,-5.88828 8.50515,-7.98969c0.9483,-0.87256 3.11532,-2.00875 4.38144,-2.57732c0.52573,-0.23609 0.87005,-0.45477 1.54639,0c1.97186,1.32588 3.72311,4.29614 6.18557,7.73196c2.70667,3.77655 5.34507,7.59637 6.70103,12.8866c1.16774,4.55589 1.38494,8.77538 1.80412,13.14433c0.3725,3.88236 0.53633,6.98546 1.03093,10.30928c0.34973,2.3503 1.54513,5.63186 1.80412,8.24742c0.22857,2.3083 -0.00272,4.37827 -1.80412,5.92783c-1.8433,1.5856 -4.78014,3.37615 -8.24742,4.63918c-5.52222,2.01157 -9.25625,1.93063 -11.85567,2.31959c-2.56166,0.38332 -5.6701,0.51546 -9.79382,0.51546c-3.09278,0 -4.92407,-0.44501 -5.6701,-0.77319c-2.42889,-1.06847 -5.97335,-2.44968 -9.02062,-3.60825c-1.8347,-0.69756 -2.03032,-1.04794 -2.31959,-1.54639c-0.46642,-0.80373 -1.00987,-1.57529 -2.06186,-2.31959c-1.51719,-1.07343 -4.01258,-2.33268 -8.76289,-4.12371c-4.04258,-1.52419 -5.74312,-2.01187 -6.95876,-3.86598c-0.824,-1.25677 -1.75114,-2.82912 -1.54639,-4.8969c0.24093,-2.43316 3.09712,-4.53775 5.41237,-5.6701c5.27957,-2.58215 11.08393,-2.82089 13.65979,-3.09278c2.32097,-0.24498 3.09278,-0.25773 5.6701,-0.25773l1.54639,0l0.51546,0" id="svg_11" stroke-width="7" stroke="#000" fill="none"/>
 </g>

</svg>